<svg aria-hidden="true" style="position:absolute;width:0;height:0" xmlns="http://www.w3.org/2000/svg" overflow="hidden"><defs>
<symbol id="icon-gmail" viewBox="0 0 30 30">
    <path fill="var(--color1, #d14836)" d="M30 5.625v18.75a1.84 1.84 0 01-1.875 1.875H26.25V9.234L15 17.313 3.75 9.234V26.25H1.875A1.84 1.84 0 010 24.375V5.625c0-.531.202-1 .539-1.335.336-.34.806-.54 1.336-.54H2.5L15 12.812 27.5 3.75h.625c.531 0 1 .203 1.336.54.338.335.539.804.539 1.335z"/>
</symbol>
<symbol id="icon-facebook2" viewBox="0 0 30 30">
    <path d="M27.188 0H2.813A2.821 2.821 0 000 2.813v24.375a2.821 2.821 0 002.813 2.813h12.188V16.876h-3.75v-3.75h3.75v-1.875c0-3.1 2.525-5.625 5.625-5.625h3.75v3.75h-3.75a1.88 1.88 0 00-1.875 1.875v1.875h5.625l-.938 3.75H18.75v13.125h8.438a2.821 2.821 0 002.813-2.813V2.813A2.821 2.821 0 0027.188 0z"/>
</symbol>
<symbol id="icon-github" viewBox="0 0 30 30">
    <path d="M15 .37c-8.283 0-15 6.715-15 15 0 6.627 4.298 12.25 10.258 14.233.75.139 1.025-.325 1.025-.722 0-.358-.014-1.539-.02-2.793-4.173.908-5.054-1.77-5.054-1.77-.682-1.734-1.665-2.195-1.665-2.195-1.361-.931.103-.912.103-.912 1.506.106 2.299 1.546 2.299 1.546 1.338 2.293 3.509 1.63 4.365 1.247.134-.969.523-1.631.952-2.006-3.332-.379-6.834-1.666-6.834-7.413 0-1.638.586-2.976 1.546-4.026-.156-.378-.67-1.903.145-3.97 0 0 1.26-.403 4.126 1.538a14.405 14.405 0 013.755-.505c1.274.006 2.559.172 3.757.505 2.863-1.941 4.121-1.538 4.121-1.538.817 2.066.303 3.592.148 3.97.962 1.05 1.544 2.389 1.544 4.026 0 5.761-3.509 7.03-6.849 7.401.538.466 1.017 1.378 1.017 2.778 0 2.007-.017 3.622-.017 4.116 0 .399.27.867 1.03.72 5.957-1.986 10.249-7.606 10.249-14.231 0-8.285-6.716-15-15-15z"/>
</symbol>
<symbol id="icon-linkedin2" viewBox="0 0 30 30">
    <path d="M11.25 11.25h5.189v2.66h.074c.722-1.295 2.489-2.66 5.122-2.66 5.477 0 6.49 3.409 6.49 7.844v9.031h-5.408v-8.006c0-1.91-.039-4.366-2.813-4.366-2.817 0-3.247 2.08-3.247 4.227v8.145H11.25V11.25zM1.875 11.25H7.5v16.875H1.875V11.25zM7.5 6.563a2.813 2.813 0 11-5.626 0 2.813 2.813 0 015.626 0z"/>
</symbol>
</defs></svg>